<svg xmlns="http://www.w3.org/2000/svg" viewBox="0 0 100 100">
  <defs>
    <linearGradient id="g" x1="0%" y1="0%" x2="100%" y2="100%">
      <stop offset="0%" stop-color="#0f766e"/>
      <stop offset="100%" stop-color="#34d399"/>
    </linearGradient>
  </defs>
  <rect width="100" height="100" rx="24" fill="url(#g)"/>
  <path d="M49.8 20.2c-12.3 0-22.3 10-22.3 22.3 0 12.3 10 22.3 22.3 22.3s22.3-10 22.3-22.3c0-12.3-10-22.3-22.3-22.3Zm0 37.4c-8.4 0-15.2-6.8-15.2-15.2S41.4 27.2 49.8 27.2 65 34 65 42.4 58.2 57.6 49.8 57.6Z" fill="#fff"/>
  <path d="M52 28.8c-1.6-1.4-4.3-1.9-6.5-1.2-2.4.8-4.1 2.8-4.7 5.2-.4 1.8.6 4.2 1.8 6.6.4.9 1.3 1.5 2.4 1.5.6 0 1.2-.2 1.7-.6 1.5-1 3-2.2 4.1-3.6.7-.9 1.2-2 1.2-3.2 0-1.4-.7-2.7-1.9-3.3Z" fill="#f8fafc" opacity=".9"/>
  <path d="M45 54.5c3.8-2.3 8-4.2 12.1-5.8 5-1.9 5.5-5.7 5.5-7.5 0-4.4-2.7-8-6.4-9.3-2.4-.8-3.6-.6-4.7.6-1.2 1.3-1.7 3.5-1.6 5.7.2 3.8 1.6 7.5 3.9 10.4.5.6 1.1 1 1.8 1.4 1.5.7 3.1 1.1 4.8 1.2 3.4.2 6.8.3 10.2.4.7 0 1.2.5 1.2 1.2v3.9c0 .7-.5 1.2-1.2 1.2-10.1-.1-20.2-.2-30.3-.4-.7 0-1.2-.5-1.2-1.2v-3.9c0-.7.5-1.2 1.2-1.2 2.8-.1 5.6-.1 8.4-.4Z" fill="#f8fafc" opacity=".85"/>
</svg>
